<?xml version="1.0" encoding="utf-8"?>
<!-- Generator: Adobe Illustrator 27.5.0, SVG Export Plug-In . SVG Version: 6.00 Build 0)  -->
<svg version="1.1" id="Layer_1" xmlns="http://www.w3.org/2000/svg" xmlns:xlink="http://www.w3.org/1999/xlink" x="0px" y="0px"
	 viewBox="0 0 500 300" style="enable-background:new 0 0 500 300;" xml:space="preserve">
<style type="text/css">
	.st0{fill:#A7333F;}
	.st1{fill:none;stroke:#000000;stroke-width:0.5;stroke-miterlimit:10;}
</style>
<g>
	<g>
		<g>
			<path class="st0" d="M137.05,165.59c0-4.98,4.21-7.47,13.75-8.52c-0.01-2.94-0.96-5.77-4.62-5.77c-2.59,0-4.92,1.25-6.68,2.45
				l-1.48-2.65c2.06-1.38,5.2-2.98,8.79-2.98c5.46,0,7.77,3.71,7.77,9.39v14.02h-3.13l-0.32-2.73h-0.13
				c-2.13,1.81-4.62,3.29-7.4,3.29C139.86,172.08,137.05,169.71,137.05,165.59z M150.8,165.95v-6.34c-7.5,0.92-10.04,2.8-10.04,5.72
				c0,2.6,1.73,3.65,3.92,3.65C146.85,168.97,148.63,167.9,150.8,165.95z"/>
			<path d="M168.68,140.68h17.42V144h-13.57v9.66h11.45v3.32h-11.45v11.21h14.04v3.32h-17.88V140.68z"/>
			<path d="M190.76,167.51l2.3-2.69c2.18,2.3,5.2,3.82,8.34,3.82c3.97,0,6.32-2.02,6.32-5.01c0-3.15-2.19-4.15-5.04-5.43l-4.34-1.95
				c-2.82-1.23-6.12-3.41-6.12-7.94c0-4.71,4.02-8.19,9.51-8.19c3.58,0,6.78,1.58,8.9,3.82l-2.04,2.52
				c-1.85-1.78-4.07-2.89-6.86-2.89c-3.39,0-5.63,1.74-5.63,4.5c0,2.97,2.64,4.08,5,5.1l4.31,1.9c3.5,1.53,6.23,3.66,6.23,8.25
				c0,4.87-3.95,8.76-10.3,8.76C197.09,172.08,193.4,170.32,190.76,167.51z"/>
			<path d="M223.84,144h-9.14v-3.32h22.13V144h-9.14v27.52h-3.85V144z"/>
		</g>
	</g>
	<path d="M237.37,141.63h6.88l20.65-24.05l20.65,24.05h6.88l-24.06-28.1h-6.88L237.37,141.63z M244.26,169.73h13.77v-17.53
		c0-0.97,0.33-1.8,0.99-2.47c0.66-0.67,1.49-1.03,2.48-1.07h6.88c0.92,0,1.73,0.36,2.42,1.07s1.03,1.54,0.99,2.47v17.53h13.77
		v-23.54l-20.65-23.26l-20.65,23.26V169.73z M282.14,124.27l6.88,8.04v-15.23h-6.88V124.27z"/>
	<g>
		<g>
			<path d="M302.86,142.2h-9.14v-3.32h22.13v3.32h-9.14v27.52h-3.85V142.2z"/>
			<path d="M321.25,138.88h17.42v3.32H325.1v9.66h11.45v3.32H325.1v11.21h14.04v3.32h-17.88V138.88z"/>
		</g>
	</g>
	<line class="st1" x1="157.72" y1="127.58" x2="157.72" y2="183.77"/>
</g>
</svg>
